HIERARCHY
ROOT Hips
{
	OFFSET 0.000000 0.000000 0.000000
	CHANNELS 6 Xposition Yposition Zposition Zrotation Yrotation Xrotation 
	JOINT LHipJoint
	{
		OFFSET 0.000000 0.000000 0.000000
		CHANNELS 3 Zrotation Yrotation Xrotation
		JOINT LeftUpLeg
		{
			OFFSET 1.363060 -1.794630 0.839290
			CHANNELS 3 Zrotation Yrotation Xrotation
			JOINT LeftLeg
			{
				OFFSET 2.448110 -6.726130 0.000000
				CHANNELS 3 Zrotation Yrotation Xrotation
				JOINT LeftFoot
				{
					OFFSET 2.562200 -7.039590 0.000000
					CHANNELS 3 Zrotation Yrotation Xrotation
					JOINT LeftToeBase
					{
						OFFSET 0.157640 -0.433110 2.322550
						CHANNELS 3 Zrotation Yrotation Xrotation
						End Site
						{
							OFFSET 0.000000 0.000000 0.000000
						}
					}
				}
			}
		}
	}
	JOINT RHipJoint
	{
		OFFSET 0.000000 0.000000 0.000000
		CHANNELS 3 Zrotation Yrotation Xrotation
		JOINT RightUpLeg
		{
			OFFSET -1.305520 -1.794630 0.839290
			CHANNELS 3 Zrotation Yrotation Xrotation
			JOINT RightLeg
			{
				OFFSET -2.542530 -6.985550 0.000000
				CHANNELS 3 Zrotation Yrotation Xrotation
				JOINT RightFoot
				{
					OFFSET -2.568260 -7.056230 0.000000
					CHANNELS 3 Zrotation Yrotation Xrotation
					JOINT RightToeBase
					{
						OFFSET -0.164730 -0.452590 2.363150
						CHANNELS 3 Zrotation Yrotation Xrotation
						End Site
						{
							OFFSET 0.000000 0.000000 0.000000
						}
					}
				}
			}
		}
	}
	JOINT LowerBack
	{
		OFFSET 0.000000 0.000000 0.000000
		CHANNELS 3 Zrotation Yrotation Xrotation
		JOINT Spine
		{
			OFFSET 0.028270 2.035590 -0.193380
			CHANNELS 3 Zrotation Yrotation Xrotation
			JOINT Spine1
			{
				OFFSET 0.056720 2.048850 -0.042750
				CHANNELS 3 Zrotation Yrotation Xrotation
				JOINT Neck
				{
					OFFSET 0.000000 0.000000 0.000000
					CHANNELS 3 Zrotation Yrotation Xrotation
					JOINT Neck1
					{
						OFFSET -0.054170 1.746240 0.172020
						CHANNELS 3 Zrotation Yrotation Xrotation
						JOINT Head
						{
							OFFSET 0.104070 1.761360 -0.123970
							CHANNELS 3 Zrotation Yrotation Xrotation
							End Site
							{
								OFFSET 0.000000 0.000000 0.000000
							}
						}
					}
				}
				JOINT LeftShoulder
				{
					OFFSET 0.000000 0.000000 0.000000
					CHANNELS 3 Zrotation Yrotation Xrotation
					JOINT LeftArm
					{
						OFFSET 3.362410 1.200890 -0.311210
						CHANNELS 3 Zrotation Yrotation Xrotation
						JOINT LeftForeArm
						{
							OFFSET 4.983000 -0.000000 -0.000000
							CHANNELS 3 Zrotation Yrotation Xrotation
							JOINT LeftHand
							{
								OFFSET 3.483560 -0.000000 -0.000000
								CHANNELS 3 Zrotation Yrotation Xrotation
								JOINT LeftFingerBase
								{
									OFFSET 0.000000 0.000000 0.000000
									CHANNELS 3 Zrotation Yrotation Xrotation
									JOINT LeftHandIndex1
									{
										OFFSET 0.715260 -0.000000 -0.000000
										CHANNELS 3 Zrotation Yrotation Xrotation
										End Site
										{
											OFFSET 0.000000 0.000000 0.000000
										}
									}
								}
								JOINT LThumb
								{
									OFFSET 0.000000 0.000000 0.000000
									CHANNELS 3 Zrotation Yrotation Xrotation
									End Site
									{
										OFFSET 0.000000 0.000000 0.000000
									}
								}
							}
						}
					}
				}
				JOINT RightShoulder
				{
					OFFSET 0.000000 0.000000 0.000000
					CHANNELS 3 Zrotation Yrotation Xrotation
					JOINT RightArm
					{
						OFFSET -3.136600 1.374050 -0.404650
						CHANNELS 3 Zrotation Yrotation Xrotation
						JOINT RightForeArm
						{
							OFFSET -5.241900 -0.000000 -0.000000
							CHANNELS 3 Zrotation Yrotation Xrotation
							JOINT RightHand
							{
								OFFSET -3.444170 -0.000000 -0.000000
								CHANNELS 3 Zrotation Yrotation Xrotation
								JOINT RightFingerBase
								{
									OFFSET 0.000000 0.000000 0.000000
									CHANNELS 3 Zrotation Yrotation Xrotation
									JOINT RightHandIndex1
									{
										OFFSET -0.622530 -0.000000 -0.000000
										CHANNELS 3 Zrotation Yrotation Xrotation
										End Site
										{
											OFFSET 0.000000 0.000000 0.000000
										}
									}
								}
								JOINT RThumb
								{
									OFFSET 0.000000 0.000000 0.000000
									CHANNELS 3 Zrotation Yrotation Xrotation
									End Site
									{
										OFFSET 0.000000 0.000000 0.000000
									}
								}
							}
						}
					}
				}
			}
		}
	}
}
MOTION
Frames: 4
Frame Time: 0.008333
0.166498 21.351019 -4.420453 -0.973189 4.161288 9.385329 -0.045569 -0.503034 -0.316560 -13.411981 -0.533519 -27.151513 2.424097 11.651572 32.817140 1.658788 3.163885 27.100138 0.068102 1.680641 4.623899 -1.917239 -0.086620 -0.290406 20.049654 2.175568 -25.929531 -5.187318 -14.257587 42.438794 0.127682 -9.123479 16.886315 -0.869308 -5.944765 16.624234 -0.866797 -0.549776 4.219545 1.236733 -0.607395 -1.647461 1.428750 -0.686481 5.595979 -3.598155 -1.641411 -7.792931 4.626183 -2.303182 28.254262 0.924469 -0.438759 10.123805 9.280415 5.098190 0.415583 -97.400899 -12.394398 27.086434 7.213097 -15.971408 -0.942710 -0.039989 -0.676651 -10.819845 27.995898 -10.394324 -5.120122 -7.125000 0.000000 0.000000 0.845523 19.082519 -0.522694 -8.435639 -4.330831 0.214136 94.282634 6.246139 17.373325 -10.412540 22.210422 -2.291049 0.642998 0.818721 33.087171 -21.940383 -23.900893 9.708642 7.125000 0.000000 0.000000 8.280290 -56.495583 -2.344919
0.164145 21.280671 -4.191812 -1.030604 4.263328 9.406614 -0.128792 -0.568116 -0.348445 -13.323339 -0.805880 -27.453257 2.009689 11.115078 31.019212 1.717679 3.024474 27.253735 0.090770 1.941503 5.344052 -1.817822 -0.041212 -0.299074 20.092128 2.064408 -26.138779 -4.504994 -13.559034 39.732819 0.120765 -9.349909 17.214778 -0.840489 -5.847975 16.343913 -0.853457 -0.502513 4.157536 1.234248 -0.545003 -1.633046 1.421352 -0.653716 5.679952 -3.572333 -1.717161 -7.841571 4.721873 -2.446258 28.402242 0.942728 -0.488659 10.189903 9.277129 5.117694 0.419139 -97.232539 -12.168328 27.133955 7.270802 -16.095028 -0.959650 -0.037039 -0.680199 -11.368060 28.054471 -10.527396 -5.201387 -7.125000 0.000000 0.000000 0.880854 18.930892 -0.547460 -8.424964 -4.348359 0.218907 94.149358 5.911983 16.816122 -10.385930 22.188936 -2.282546 0.649178 0.820350 33.260405 -22.066262 -23.926219 9.780682 7.125000 0.000000 0.000000 8.158767 -56.554831 -2.321926
0.162261 21.193953 -3.959027 -1.090042 4.354932 9.375193 -0.224650 -0.627144 -0.373389 -13.198160 -1.119466 -27.603132 1.595473 10.529424 29.107724 1.773891 3.025431 27.470894 0.115105 2.187667 6.024469 -1.705664 0.000620 -0.307927 20.115181 1.920659 -26.198506 -3.817430 -12.778042 36.862114 0.115155 -9.631551 17.595338 -0.805918 -5.729264 16.000848 -0.825108 -0.454014 4.110962 1.229059 -0.480326 -1.617202 1.396252 -0.618089 5.756026 -3.556339 -1.791243 -7.859158 4.824434 -2.590501 28.558060 0.966921 -0.539792 10.251259 9.272504 5.137305 0.423977 -97.034559 -11.884367 27.217250 7.352487 -16.261743 -0.982654 -0.034225 -0.684455 -11.858673 28.206034 -10.664116 -5.304408 -7.125000 0.000000 0.000000 0.981309 18.767384 -0.613570 -8.416982 -4.366946 0.224428 94.021797 5.526569 16.355394 -10.396076 22.227259 -2.289215 0.654651 0.821599 33.385566 -22.202170 -23.942500 9.854392 7.125000 0.000000 0.000000 8.021560 -56.606174 -2.292495
0.160557 21.090393 -3.722016 -1.169266 4.432484 9.298964 -0.332812 -0.679565 -0.391585 -13.011707 -1.468365 -27.607909 1.187565 9.890743 27.083332 1.837688 3.137631 27.801487 0.133289 2.352754 6.481642 -1.582437 0.038353 -0.315802 20.129026 1.777911 -26.121258 -3.146294 -11.918402 33.867763 0.108346 -9.948675 18.024094 -0.768590 -5.598004 15.622389 -0.764143 -0.405463 4.062592 1.223269 -0.415125 -1.601719 1.351937 -0.580020 5.827789 -3.550839 -1.855451 -7.854840 4.930422 -2.722657 28.730541 0.997857 -0.586354 10.313456 9.266942 5.157646 0.429789 -96.806321 -11.542707 27.334234 7.456098 -16.468880 -1.012105 -0.029990 -0.689387 -12.304748 28.420335 -10.720027 -5.378172 -7.125000 0.000000 0.000000 1.130634 18.689935 -0.708829 -8.411320 -4.386359 0.230149 93.899799 5.108282 16.032155 -10.433820 22.311452 -2.307225 0.658786 0.823369 33.417698 -22.341357 -23.961793 9.931060 7.125000 0.000000 0.000000 7.881408 -56.661156 -2.262582
